<svg width="103" height="38" viewBox="0 0 103 38" fill="none" xmlns="http://www.w3.org/2000/svg">
<path d="M16.149 5.74878L15.302 7.57634H7.57104L4.22575 14.2566L4.74115 15.2794H3.72229L0 11.5452L4.74115 2.03618L4.22575 1.02539H18.5327L16.7575 4.58949H11.1907L12.0378 2.84097H9.91895L8.46344 5.74878H16.149Z" fill="white"/>
<path d="M18.4063 5.08276H23.9849L19.4132 14.2565H13.8369L18.4063 5.08276ZM19.919 2.08154H25.4858L24.4097 4.24204H18.8405L19.919 2.08154Z" fill="white"/>
<path d="M26.7576 14.2569H21.167L25.7268 5.09277H37.9483L38.4518 6.10356L34.3859 14.2545H28.7953L32.4842 6.87243H30.4226L26.7576 14.2569Z" fill="white"/>
<path d="M46.4239 9.15206L47.5573 6.86462H45.4265L44.7513 8.21073H39.1726L40.2272 6.10772L41.2342 5.08496H53.0095L53.513 6.10772L49.4351 14.2587H37.1802L36.6768 13.2359L38.7049 9.15445H46.4239V9.15206ZM43.3984 10.9341L42.63 12.4742H44.7608L45.5387 10.9341H43.3984Z" fill="white"/>
<path d="M57.8892 1.02276L57.3619 0H58.3927L62.1149 3.73656L56.8679 14.2564H51.2773L57.8892 1.02276Z" fill="white"/>
<path d="M15.9625 22.9964H18.0933L19.5035 20.1796H25.094L23.3069 23.7437L22.2999 24.7785H10.5222L10.0068 23.7437L13.5573 16.6275L14.5881 15.5928H26.3634L26.8669 16.6275L25.5951 19.1688H20.0069L20.8993 17.3748H18.7566L15.9625 22.9964Z" fill="white"/>
<path d="M35.3901 27.4807L24.2686 27.4687L25.1967 25.7082H31.8396L32.3097 24.7764H25.6429L25.1395 23.7417L29.1934 15.6123H34.7482L31.0713 22.9944H33.1901L36.8671 15.6123H42.4338L37.0269 26.489L35.3901 27.4807Z" fill="white"/>
<path d="M45.343 24.7669L39.4589 36.5682L39.9863 37.579H38.9674L35.2451 33.8425L44.3146 15.5908H56.5934L57.0969 16.6136L53.5583 23.7418L52.5395 24.7645H45.343V24.7669ZM51.1388 17.3753H49.02L46.2378 22.9873H48.3567L51.1388 17.3753Z" fill="white"/>
<path d="M54.9307 24.779L64.2197 5.75372L63.7162 4.73096H64.7232L68.4454 8.46751L65.0787 15.6149H65.2051H65.1932H71.7669L72.2703 16.6257L68.2164 24.7766H62.6377L66.3147 17.3945H64.1863L60.4974 24.7766H54.9307V24.779Z" fill="white"/>
<path d="M77.7358 20.491L76.464 22.9964H78.5829L79.523 21.1688H85.1016L83.7965 23.7677L82.7895 24.7784H71.0142L70.5107 23.7677L74.0612 16.6275L75.0682 15.6167H86.8435L87.347 16.6275L85.4691 20.503H79.8785V20.491H77.7358ZM80.759 18.7185L81.3889 17.3964H79.2462L78.6043 18.7185H80.759Z" fill="white"/>
<path d="M90.6668 24.7783H85.0762L89.1874 16.5459L88.6839 15.5352H103L100.972 19.6166H95.3817L96.5151 17.3172H94.3962L90.6668 24.7783Z" fill="white"/>
</svg>
